<svg width="796" height="800" viewBox="0 0 796 800" fill="none" xmlns="http://www.w3.org/2000/svg">
<path d="M353.333 2.00005C285.733 10.1334 220.933 35.2 166.133 74.2667C145.2 89.2 136.133 96.8 116.8 115.733C60.9333 170.533 25.6 233.733 8.66666 309.333C1.86666 339.2 0.666656 353.6 0.666656 399.333C0.79999 445.6 1.99999 458.133 9.99999 494C39.2 624.4 140 734.533 271.333 779.6C339.067 802.8 416.533 805.733 492.533 788C558.8 772.533 629.733 732.133 681.333 680.133C704 657.333 714.267 644.8 731.333 619.333C763.333 571.6 783.067 519.2 792.933 456C796.267 434.4 796.267 369.733 792.8 344.667C783.067 273.067 755.6 208.133 711.733 153.067C642.933 66.6667 546.133 13.7333 434.4 1.46666C417.2 -0.400005 370.933 -0.133286 353.333 2.00005ZM446 56.5334C559.6 74.2667 657.067 145.467 706.8 247.2C717.6 269.467 725.867 291.6 731.333 313.333C735.333 329.467 740 360.667 740 372.267V381.333H720.667C695.067 381.333 693.733 380.8 686.8 367.067C684 361.333 680.133 355.333 678.4 353.733C670.933 346.8 656.667 344.267 647.867 348.533C640.667 351.867 633.6 360 630 368.8C628.133 373.067 626.667 376 626.667 375.333C626.533 369.067 614.4 304.667 612.8 301.6C608 292.267 593.6 285.2 583.733 287.333C570.8 290.133 562.8 299.467 559.2 315.867C558 321.467 554.8 334.933 552 346C549.2 356.933 543.6 380.267 539.333 397.6C535.2 415.067 531.333 429.6 530.8 429.867C530.267 430.267 527.867 414.8 525.467 395.6C518 335.733 513.333 302.267 511.867 296.667C507.467 280.533 489.467 272.533 474.667 280C466.8 284 463.6 290.267 456.133 316.4C452.4 329.6 447.067 346.933 444.4 355.067C439.733 369.333 439.467 369.733 438.533 365.333C438 362.8 436 343.2 434.133 322C432.133 300.667 429.467 270.4 428 254.667C426.533 238.933 423.6 205.867 421.467 181.2C419.067 154 416.8 134.533 415.6 131.867C413.067 125.733 405.333 119.067 398.533 117.333C387.467 114.267 374.133 120.667 370.133 130.667C368.133 135.733 366.4 151.333 362 203.333C360.133 224.8 357.2 256.933 355.333 275.333C354.933 278.933 353.733 292.133 352.667 304.667C350 334.667 346.667 360.4 345.333 361.733C343.6 363.6 338.533 348.533 323.733 296.933C321.867 290.133 319.867 286.533 315.6 282.133C306.267 272.4 295.333 271.2 283.6 278.667C275.467 283.733 272.533 290.667 270.667 308C269.867 315.733 267.733 334 265.867 348.667C264 363.333 262 380.267 261.2 386.4C260.533 392.533 258.8 405.6 257.333 415.467C255.867 425.333 254.667 433.867 254.667 434.267C254.667 434.8 254.4 434.8 254.133 434.533C253.467 433.867 249.2 415.333 235.333 352C228 318.667 224.267 304.533 221.867 300.4C214.267 287.467 196.4 283.2 183.333 291.333C173.333 297.467 171.467 302.533 164.533 339.467C161.333 357.067 158.667 371.867 158.667 372.667C158.533 373.333 157.2 370.933 155.467 367.333C149.067 353.2 140.133 346.667 127.333 346.667C113.333 346.667 105.2 352.8 99.2 368.133C97.2 373.333 94.2667 378.4 92.8 379.467C90.8 380.8 85.6 381.333 72.4 381.333H54.6667V376.133C54.6667 368.4 58.2667 341.467 61.4667 325.467C68 292.933 83.4667 251.6 97.7333 228.667C107.333 213.067 122.4 190.8 128 183.867C138.8 170.4 167.333 142 182.667 129.733C230.8 90.8 290.533 64.8 350 56.8C358.8 55.7334 367.467 54.4 369.333 54.1333C376.667 52.8 433.2 54.6667 446 56.5334ZM396 328C400.533 358 409.067 424 410 436C410.8 446.4 410.133 450.8 402.133 491.333C390.933 547.2 392 543.733 389.867 534.667C388.8 530.667 385.333 514.133 382 498C378.667 481.867 374.933 465.067 373.867 460.667C372.4 455.2 372 450.133 372.533 444.667C374 430.8 385.333 350.8 388.8 330.667C390.533 320 392 310.8 392 310.133C392 309.467 392.267 309.2 392.667 309.467C392.933 309.867 394.4 318.133 396 328ZM317.733 426C338.533 508.267 358.133 598.4 364.667 640.533C369.067 669.067 371.6 674.533 383.067 679.333C392.533 683.333 404.133 680.4 410.933 672.267C415.733 666.533 416.667 662.933 420.667 636.667C424.667 610.933 434.533 558.4 439.467 536.667C444.8 513.333 462.133 443.6 467.333 424.667C469.867 415.067 473.333 402.133 474.933 395.6C476.533 389.2 478.267 384 478.8 384C480.133 384 483.333 402.267 490 448.267C502 531.333 500.933 525.867 507.067 532.933C520.667 548.4 544.933 544.667 553.067 525.733C554.533 522.133 562.8 490.933 571.467 456.133C583.2 409.067 587.467 393.733 588.267 395.867C588.8 397.6 591.733 412.267 594.533 428.667C600.533 463.067 602.4 467.6 612.533 473.867C628.4 483.733 648.8 475.333 653.867 456.933C654.933 453.067 657.733 443.067 660 434.667C662.267 426.133 664.667 418.4 665.333 417.467C666.133 416 668.133 417.067 673.867 422.267C684.667 432.133 689.2 433.333 716.933 433.333C743.733 433.333 741.2 430.933 738 453.2C729.067 514.267 704.667 569.6 665.467 617.333C586.133 714.133 456.4 763.2 338 741.333C264.933 727.733 202 693.6 148.667 638.533C123.2 612.133 108 591.2 91.6 560C72.2667 523.2 60.5333 484.533 55.3333 440.267L54.5333 433.333H75.0667C100.267 433.333 105.733 431.867 114.933 422.4L121.2 416L122.8 421.6C129.2 446 134.933 463.6 137.467 467.2C142.8 474.933 148.8 477.867 159.467 478C167.467 478 169.6 477.467 174.4 474.267C183.733 468.133 186 463.067 189.867 440.667C195.467 407.6 197.733 396 198.533 396C198.933 396 201.333 404.533 203.733 415.067C213.2 455.733 228.4 516.933 230.267 522.533C237.2 542.133 260.4 548.933 275.467 535.733C284.533 527.733 282.4 538.133 300.8 414.667C302.533 402.533 304.4 390.533 304.933 388L305.733 383.333L307.467 387.333C308.267 389.467 312.933 406.933 317.733 426Z" fill="#CB6242"/>
</svg>
